<?xml version="1.0" encoding="UTF-8" standalone="no"?>
<!-- Created with Inkscape (http://www.inkscape.org/) -->

<svg
   width="512"
   height="512"
   viewBox="0 0 135.46666 135.46667"
   version="1.1"
   id="svg1"
   inkscape:version="1.3.1 (9b9bdc1480, 2023-11-25, custom)"
   sodipodi:docname="jgl-new-logo-2.svg"
   xmlns:inkscape="http://www.inkscape.org/namespaces/inkscape"
   xmlns:sodipodi="http://sodipodi.sourceforge.net/DTD/sodipodi-0.dtd"
   xmlns="http://www.w3.org/2000/svg"
   xmlns:svg="http://www.w3.org/2000/svg">
  <sodipodi:namedview
     id="namedview1"
     pagecolor="#ffffff"
     bordercolor="#000000"
     borderopacity="0.25"
     inkscape:showpageshadow="2"
     inkscape:pageopacity="0.0"
     inkscape:pagecheckerboard="false"
     inkscape:deskcolor="#d1d1d1"
     inkscape:document-units="mm"
     inkscape:zoom="1.4815911"
     inkscape:cx="397.54558"
     inkscape:cy="292.92833"
     inkscape:window-width="3370"
     inkscape:window-height="1376"
     inkscape:window-x="70"
     inkscape:window-y="27"
     inkscape:window-maximized="1"
     inkscape:current-layer="layer1" />
  <defs
     id="defs1">
    <inkscape:path-effect
       effect="fillet_chamfer"
       id="path-effect1"
       is_visible="true"
       lpeversion="1"
       nodesatellites_param="F,0,0,1,0,13.229167,0,1 @ F,0,0,1,0,13.229167,0,1 @ F,0,0,1,0,13.229167,0,1 @ F,0,0,1,0,13.229167,0,1"
       radius="50"
       unit="px"
       method="auto"
       mode="F"
       chamfer_steps="1"
       flexible="false"
       use_knot_distance="true"
       apply_no_radius="true"
       apply_with_radius="true"
       only_selected="false"
       hide_knots="false" />
    <inkscape:path-effect
       effect="fillet_chamfer"
       id="path-effect2"
       is_visible="true"
       lpeversion="1"
       nodesatellites_param="F,0,0,1,0,7.9375,0,1 @ F,0,0,1,0,7.9375,0,1 @ F,0,0,1,0,7.9375,0,1 @ F,0,0,1,0,7.9375,0,1"
       radius="30"
       unit="px"
       method="auto"
       mode="F"
       chamfer_steps="1"
       flexible="false"
       use_knot_distance="true"
       apply_no_radius="true"
       apply_with_radius="true"
       only_selected="false"
       hide_knots="false" />
    <inkscape:path-effect
       effect="fillet_chamfer"
       id="path-effect2-7"
       is_visible="true"
       lpeversion="1"
       nodesatellites_param="F,0,0,1,0,7.9375,0,1 @ F,0,0,1,0,7.9375,0,1 @ F,0,0,1,0,7.9375,0,1 @ F,0,0,1,0,7.9375,0,1"
       radius="30"
       unit="px"
       method="auto"
       mode="F"
       chamfer_steps="1"
       flexible="false"
       use_knot_distance="true"
       apply_no_radius="true"
       apply_with_radius="true"
       only_selected="false"
       hide_knots="false" />
  </defs>
  <g
     inkscape:label="Layer 1"
     inkscape:groupmode="layer"
     id="layer1">
    <path
       style="fill:#313133;fill-opacity:1;stroke:none;stroke-width:0;stroke-dasharray:none"
       id="rect1"
       width="135.73125"
       height="135.46666"
       x="0"
       y="0"
       inkscape:path-effect="#path-effect1"
       sodipodi:type="rect"
       d="M 13.229167,0 H 122.50208 a 13.229167,13.229167 45 0 1 13.22917,13.229167 V 122.23749 a 13.229167,13.229167 135 0 1 -13.22917,13.22917 H 13.229167 A 13.229167,13.229167 45 0 1 0,122.23749 V 13.229167 A 13.229167,13.229167 135 0 1 13.229167,0 Z"
       transform="matrix(0.99511521,0,0,0.99705882,0,0.39843871)" />
    <path
       style="font-size:88.4927px;font-family:'Sansita One';-inkscape-font-specification:'Sansita One, Normal';opacity:1;fill:#fafafa;fill-opacity:1;stroke-width:2.22614"
       d="m 4.3217855,98.212819 q 5.0440003,-0.4887 8.2088735,-5.864356 3.26377,-5.457108 6.230833,-18.00028 L 28.355,33.216288 h 21.461772 l -9.593507,41.131895 q -3.659381,15.964047 -9.692415,22.235644 -3.164873,3.257972 -7.21986,4.561173 -3.956079,1.30318 -8.307773,1.30318 -4.351698,0 -7.1209625,-1.30318 -2.8681517,-1.303201 -3.560469,-2.932181 z"
       id="text1" />
    <path
       style="font-size:88.4927px;font-family:'Sansita One';-inkscape-font-specification:'Sansita One, Normal';opacity:1;fill:#fafafa;fill-opacity:1;stroke-width:2.48535"
       d="m 128.20874,84.585771 q 1.87916,2.436494 1.87916,7.207964 0,4.669968 -3.5605,7.614054 -3.46161,2.842591 -9.59356,2.842591 -3.5605,0 -9.09905,-0.81216 -10.879306,-1.725871 -14.044185,-1.725871 -3.065992,0 -4.351721,0.20306 -1.285741,0.101421 -3.362702,0.304561 L 98.043417,33.216288 h 21.659693 l -9.89028,55.836399 q 1.28575,0.20303 2.47258,0.20303 h 2.47257 q 8.30781,0 13.45076,-4.669946 z"
       id="path2" />
    <path
       style="font-size:88.4927px;font-family:'Sansita One';-inkscape-font-specification:'Sansita One, Normal';opacity:1;fill:#0a0a0c;fill-opacity:1;stroke:#fafafa;stroke-width:2.45309;stroke-opacity:1"
       d="m 96.559885,66.18958 q -7.121001,15.62662 -7.121001,33.725829 -2.67037,1.879141 -6.626481,1.879141 -3.857199,0 -6.32977,-1.879141 -2.47257,-1.78026 -2.96708,-3.659408 -2.47257,2.571468 -6.52758,4.055009 -3.956106,1.48354 -8.208923,1.48354 -4.252816,0 -8.011119,-1.38464 -3.6594,-1.384641 -6.527579,-4.450619 -6.329773,-6.725379 -6.329773,-19.483831 0,-19.780542 10.582589,-31.648868 10.879298,-12.263936 30.165326,-12.263936 13.35186,0 18.099191,6.92319 1.483538,2.175859 1.483538,4.846232 0,2.571469 -1.186828,4.846229 -1.087931,2.17586 -2.868181,3.95611 -4.252809,3.956112 -9.494661,3.956112 -2.076949,0 -4.05501,-0.692321 0.395609,-2.96708 0.395609,-6.42867 0,-3.461601 -0.296698,-5.044042 -0.197811,-1.582445 -0.79122,-2.86818 -1.28574,-2.670372 -4.153921,-2.670372 -2.769269,0 -5.934159,3.065983 -3.06598,2.96708 -5.538551,7.912221 -5.43965,11.0771 -5.43965,24.428961 0,6.131971 2.373665,10.483692 2.571476,4.74733 7.120996,4.74733 1.582439,0 2.967079,-0.791219 1.48354,-0.791221 2.07696,-1.384641 L 76.581532,67.96983 Z"
       id="path1" />
  </g>
</svg>
