<?xml version="1.0" standalone="no"?>
<!DOCTYPE svg PUBLIC "-//W3C//DTD SVG 20010904//EN"
 "http://www.w3.org/TR/2001/REC-SVG-20010904/DTD/svg10.dtd">
<svg version="1.0" xmlns="http://www.w3.org/2000/svg"
 width="700.000000pt" height="700.000000pt" viewBox="0 0 700.000000 700.000000"
 preserveAspectRatio="xMidYMid meet">
<metadata>
Created by potrace 1.14, written by Peter Selinger 2001-2017
</metadata>
<g transform="translate(0.000000,700.000000) scale(0.100000,-0.100000)"
fill="#000000" stroke="none">
<path d="M585 6970 c-266 -40 -488 -238 -562 -500 -17 -62 -18 -182 -18 -2980
0 -2798 1 -2918 18 -2980 66 -233 254 -421 487 -487 62 -17 182 -18 2980 -18
2799 0 2918 1 2980 18 196 56 349 183 434 360 24 50 50 117 58 147 11 45 13
560 13 2965 l0 2910 -23 75 c-39 125 -88 207 -177 296 -63 63 -99 90 -165 123
-170 84 158 75 -3085 77 -1589 1 -2912 -2 -2940 -6z m3835 -1615 c126 -23 237
-59 335 -107 90 -45 136 -78 213 -152 28 -28 52 -48 53 -46 0 3 10 57 22 120
l22 115 555 3 c304 1 557 -1 560 -5 4 -5 -107 -653 -247 -1441 -140 -789 -252
-1437 -248 -1440 12 -13 309 -14 405 -2 182 23 350 88 475 184 55 41 61 44 74
28 49 -62 81 -195 81 -343 0 -165 -41 -272 -142 -370 -203 -197 -463 -225
-1128 -124 -480 73 -760 90 -760 46 0 -25 -127 -99 -209 -121 -126 -34 -319
-29 -427 11 -80 29 -186 101 -235 158 l-41 48 -77 -52 c-206 -138 -494 -206
-776 -184 -271 22 -479 113 -656 289 -155 154 -258 337 -314 562 -9 35 -18 70
-21 78 -3 8 -29 -42 -57 -110 -220 -526 -496 -747 -989 -790 -277 -24 -549 50
-640 175 l-29 40 61 12 c183 37 334 192 452 464 56 129 148 412 197 604 22 88
151 634 286 1214 135 580 248 1058 251 1062 3 5 252 9 555 9 501 0 549 -1 549
-16 0 -16 -115 -524 -125 -552 -2 -6 24 18 58 55 81 86 219 202 332 276 247
163 592 279 935 316 138 15 539 6 650 -14z"/>
<path d="M3743 5234 c-457 -55 -833 -230 -1121 -522 -325 -330 -517 -759 -576
-1288 -71 -633 28 -1075 305 -1355 77 -78 194 -158 277 -189 394 -149 870 -65
1130 197 44 45 74 69 77 61 2 -7 11 -38 20 -68 22 -77 55 -122 127 -173 89
-64 170 -89 288 -90 101 -1 179 14 246 45 l41 19 6 167 c18 459 109 911 268
1326 27 71 47 132 44 135 -5 4 -857 -67 -861 -72 -1 -1 -37 -225 -80 -497
l-78 -495 -33 -32 c-46 -44 -166 -101 -238 -113 -135 -22 -260 24 -370 134
-155 156 -235 406 -235 736 0 456 100 892 294 1278 141 282 342 500 521 568
70 27 185 25 246 -2 163 -75 217 -248 207 -665 l-5 -208 31 -7 c56 -12 190 -7
256 11 178 46 348 189 429 359 173 362 -109 685 -652 745 -129 15 -426 12
-564 -5z"/>
<path d="M3840 4884 c-224 -80 -473 -452 -614 -916 -125 -413 -153 -925 -65
-1198 55 -169 156 -300 259 -336 86 -29 165 -23 240 17 34 18 66 42 71 53 4
12 44 250 88 530 45 280 82 510 83 512 3 2 327 32 653 60 110 9 203 20 207 23
6 5 98 493 98 521 0 5 -26 -7 -57 -29 -200 -135 -429 -171 -641 -100 l-64 21
6 57 c3 31 9 144 12 251 11 320 -18 456 -108 523 -35 26 -111 31 -168 11z"/>
</g>
</svg>
